# xmcd
#
# Track frame offsets:
#	150
#	18732
#	35477
#	54342
#	85122
#	104175
#	118817
#	136525
#	155260
#	170292
#
# Disc length: 2530 seconds
#
# Revision: 1
# Processed by: cddbd v1.4PL0 Copyright (c) Steve Scherf et al.
# Submitted via: audiograbber 1.80.04
#
DISCID=7b09e00a
DTITLE=Tyrone Davis - Relaxin With Tyrone
DYEAR=2000
DGENRE=R&B
TTITLE0=Sugar Daddy
TTITLE1=Kiss You
TTITLE2=He'll Never Love You
TTITLE3=Sure Wasn't Me
TTITLE4=Leavin Me
TTITLE5=What's A Man To Do
TTITLE6=Power
TTITLE7=Can't Help But Say
TTITLE8=Family Affair
TTITLE9=Tribute To Johnny Taylor
EXTD=
EXTT0=
EXTT1=
EXTT2=
EXTT3=
EXTT4=
EXTT5=
EXTT6=
EXTT7=
EXTT8=
EXTT9=
PLAYORDER=
